<svg width="360" height="201" viewBox="0 0 360 201" fill="none" xmlns="http://www.w3.org/2000/svg">
<path d="M0 5.99999C0 2.68629 2.68629 0 6 0H354C357.314 0 360 2.68629 360 6V195C360 198.314 357.314 201 354 201H5.99999C2.68629 201 0 198.314 0 195V5.99999Z" fill="#D9D9D9"/>
<path d="M19.1705 119.818H22.9545L31.8523 141.551H32.1591L41.0568 119.818H44.8409V146H41.875V126.108H41.6193L33.4375 146H30.5739L22.392 126.108H22.1364V146H19.1705V119.818ZM73.2887 132.909C73.2887 135.67 72.7901 138.057 71.793 140.068C70.7958 142.08 69.4279 143.631 67.6893 144.722C65.9506 145.812 63.9648 146.358 61.7319 146.358C59.4989 146.358 57.5131 145.812 55.7745 144.722C54.0359 143.631 52.668 142.08 51.6708 140.068C50.6737 138.057 50.1751 135.67 50.1751 132.909C50.1751 130.148 50.6737 127.761 51.6708 125.75C52.668 123.739 54.0359 122.188 55.7745 121.097C57.5131 120.006 59.4989 119.46 61.7319 119.46C63.9648 119.46 65.9506 120.006 67.6893 121.097C69.4279 122.188 70.7958 123.739 71.793 125.75C72.7901 127.761 73.2887 130.148 73.2887 132.909ZM70.2205 132.909C70.2205 130.642 69.8413 128.729 69.0827 127.169C68.3327 125.609 67.3143 124.429 66.0273 123.628C64.7489 122.827 63.3171 122.426 61.7319 122.426C60.1467 122.426 58.7106 122.827 57.4237 123.628C56.1452 124.429 55.1268 125.609 54.3683 127.169C53.6183 128.729 53.2433 130.642 53.2433 132.909C53.2433 135.176 53.6183 137.089 54.3683 138.649C55.1268 140.209 56.1452 141.389 57.4237 142.19C58.7106 142.991 60.1467 143.392 61.7319 143.392C63.3171 143.392 64.7489 142.991 66.0273 142.19C67.3143 141.389 68.3327 140.209 69.0827 138.649C69.8413 137.089 70.2205 135.176 70.2205 132.909ZM78.4631 119.818L86.2358 141.858H86.5426L94.3153 119.818H97.6392L88.0256 146H84.7528L75.1392 119.818H78.4631ZM104.888 119.818V146H101.717V119.818H104.888ZM111.245 146V119.818H127.046V122.631H114.415V131.477H126.228V134.29H114.415V143.188H127.25V146H111.245ZM147.078 126.364C146.925 125.068 146.303 124.062 145.212 123.347C144.121 122.631 142.783 122.273 141.198 122.273C140.039 122.273 139.025 122.46 138.155 122.835C137.294 123.21 136.621 123.726 136.135 124.382C135.658 125.038 135.419 125.784 135.419 126.619C135.419 127.318 135.586 127.919 135.918 128.422C136.259 128.916 136.694 129.33 137.222 129.662C137.75 129.986 138.304 130.254 138.884 130.467C139.463 130.672 139.996 130.838 140.482 130.966L143.141 131.682C143.823 131.861 144.581 132.108 145.417 132.423C146.26 132.739 147.066 133.169 147.833 133.714C148.608 134.251 149.248 134.942 149.75 135.786C150.253 136.629 150.505 137.665 150.505 138.892C150.505 140.307 150.134 141.585 149.392 142.727C148.659 143.869 147.586 144.777 146.171 145.45C144.765 146.124 143.056 146.46 141.044 146.46C139.169 146.46 137.546 146.158 136.174 145.553C134.81 144.947 133.736 144.104 132.952 143.021C132.176 141.939 131.738 140.682 131.635 139.25H134.908C134.993 140.239 135.326 141.057 135.905 141.705C136.493 142.344 137.235 142.821 138.13 143.136C139.033 143.443 140.005 143.597 141.044 143.597C142.255 143.597 143.341 143.401 144.304 143.009C145.267 142.608 146.03 142.054 146.593 141.347C147.155 140.631 147.436 139.795 147.436 138.841C147.436 137.972 147.194 137.264 146.708 136.719C146.222 136.173 145.583 135.73 144.79 135.389C143.998 135.048 143.141 134.75 142.221 134.494L138.999 133.574C136.953 132.986 135.334 132.146 134.141 131.055C132.948 129.964 132.351 128.537 132.351 126.773C132.351 125.307 132.748 124.028 133.54 122.938C134.341 121.838 135.415 120.986 136.762 120.381C138.117 119.767 139.63 119.46 141.3 119.46C142.988 119.46 144.488 119.763 145.8 120.368C147.113 120.964 148.152 121.783 148.919 122.822C149.695 123.862 150.104 125.043 150.147 126.364H147.078ZM165.842 146V119.818H181.643V122.631H169.013V131.477H180.825V134.29H169.013V143.188H181.848V146H165.842ZM188.892 119.818L195.642 130.71H195.847L202.597 119.818H206.33L198.097 132.909L206.33 146H202.597L195.847 135.312H195.642L188.892 146H185.159L193.597 132.909L185.159 119.818H188.892ZM210.456 146V119.818H219.302C221.356 119.818 223.035 120.189 224.339 120.93C225.652 121.663 226.623 122.656 227.254 123.909C227.885 125.162 228.2 126.56 228.2 128.102C228.2 129.645 227.885 131.047 227.254 132.308C226.632 133.57 225.669 134.575 224.365 135.325C223.061 136.067 221.39 136.438 219.353 136.438H213.012V133.625H219.251C220.657 133.625 221.787 133.382 222.639 132.896C223.491 132.411 224.109 131.754 224.493 130.928C224.885 130.092 225.081 129.151 225.081 128.102C225.081 127.054 224.885 126.116 224.493 125.29C224.109 124.463 223.487 123.815 222.626 123.347C221.765 122.869 220.623 122.631 219.2 122.631H213.626V146H210.456ZM233.307 146V119.818H236.478V143.188H248.648V146H233.307ZM274.629 132.909C274.629 135.67 274.13 138.057 273.133 140.068C272.136 142.08 270.768 143.631 269.029 144.722C267.29 145.812 265.305 146.358 263.072 146.358C260.839 146.358 258.853 145.812 257.114 144.722C255.376 143.631 254.008 142.08 253.011 140.068C252.013 138.057 251.515 135.67 251.515 132.909C251.515 130.148 252.013 127.761 253.011 125.75C254.008 123.739 255.376 122.188 257.114 121.097C258.853 120.006 260.839 119.46 263.072 119.46C265.305 119.46 267.29 120.006 269.029 121.097C270.768 122.188 272.136 123.739 273.133 125.75C274.13 127.761 274.629 130.148 274.629 132.909ZM271.56 132.909C271.56 130.642 271.181 128.729 270.423 127.169C269.673 125.609 268.654 124.429 267.367 123.628C266.089 122.827 264.657 122.426 263.072 122.426C261.487 122.426 260.05 122.827 258.763 123.628C257.485 124.429 256.467 125.609 255.708 127.169C254.958 128.729 254.583 130.642 254.583 132.909C254.583 135.176 254.958 137.089 255.708 138.649C256.467 140.209 257.485 141.389 258.763 142.19C260.05 142.991 261.487 143.392 263.072 143.392C264.657 143.392 266.089 142.991 267.367 142.19C268.654 141.389 269.673 140.209 270.423 138.649C271.181 137.089 271.56 135.176 271.56 132.909ZM279.96 146V119.818H288.806C290.852 119.818 292.531 120.168 293.843 120.866C295.156 121.557 296.127 122.507 296.758 123.717C297.388 124.928 297.704 126.304 297.704 127.847C297.704 129.389 297.388 130.757 296.758 131.95C296.127 133.143 295.16 134.081 293.856 134.763C292.552 135.436 290.886 135.773 288.857 135.773H281.698V132.909H288.755C290.153 132.909 291.278 132.705 292.13 132.295C292.991 131.886 293.613 131.307 293.996 130.557C294.388 129.798 294.585 128.895 294.585 127.847C294.585 126.798 294.388 125.882 293.996 125.098C293.604 124.314 292.978 123.709 292.117 123.283C291.256 122.848 290.119 122.631 288.704 122.631H283.13V146H279.96ZM292.283 134.239L298.727 146H295.045L288.704 134.239H292.283ZM302.987 146V119.818H318.788V122.631H306.157V131.477H317.97V134.29H306.157V143.188H318.993V146H302.987ZM324.502 146V119.818H333.349C335.395 119.818 337.074 120.168 338.386 120.866C339.699 121.557 340.67 122.507 341.301 123.717C341.931 124.928 342.247 126.304 342.247 127.847C342.247 129.389 341.931 130.757 341.301 131.95C340.67 133.143 339.703 134.081 338.399 134.763C337.095 135.436 335.429 135.773 333.4 135.773H326.241V132.909H333.298C334.696 132.909 335.821 132.705 336.673 132.295C337.534 131.886 338.156 131.307 338.539 130.557C338.931 129.798 339.127 128.895 339.127 127.847C339.127 126.798 338.931 125.882 338.539 125.098C338.147 124.314 337.521 123.709 336.66 123.283C335.799 122.848 334.662 122.631 333.247 122.631H327.673V146H324.502ZM336.826 134.239L343.27 146H339.588L333.247 134.239H336.826Z" fill="#2BE080"/>
<path d="M19.1705 119.818V119.318H18.6705V119.818H19.1705ZM22.9545 119.818L23.4173 119.629L23.2901 119.318H22.9545V119.818ZM31.8523 141.551L31.3896 141.741L31.5167 142.051H31.8523V141.551ZM32.1591 141.551V142.051H32.4947L32.6218 141.741L32.1591 141.551ZM41.0568 119.818V119.318H40.7212L40.5941 119.629L41.0568 119.818ZM44.8409 119.818H45.3409V119.318H44.8409V119.818ZM44.8409 146V146.5H45.3409V146H44.8409ZM41.875 146H41.375V146.5H41.875V146ZM41.875 126.108H42.375V125.608H41.875V126.108ZM41.6193 126.108V125.608H41.2843L41.1569 125.918L41.6193 126.108ZM33.4375 146V146.5H33.7725L33.8999 146.19L33.4375 146ZM30.5739 146L30.1115 146.19L30.2389 146.5H30.5739V146ZM22.392 126.108L22.8545 125.918L22.727 125.608H22.392V126.108ZM22.1364 126.108V125.608H21.6364V126.108H22.1364ZM22.1364 146V146.5H22.6364V146H22.1364ZM19.1705 146H18.6705V146.5H19.1705V146ZM19.1705 120.318H22.9545V119.318H19.1705V120.318ZM22.4918 120.008L31.3896 141.741L32.315 141.362L23.4173 119.629L22.4918 120.008ZM31.8523 142.051H32.1591V141.051H31.8523V142.051ZM32.6218 141.741L41.5195 120.008L40.5941 119.629L31.6964 141.362L32.6218 141.741ZM41.0568 120.318H44.8409V119.318H41.0568V120.318ZM44.3409 119.818V146H45.3409V119.818H44.3409ZM44.8409 145.5H41.875V146.5H44.8409V145.5ZM42.375 146V126.108H41.375V146H42.375ZM41.875 125.608H41.6193V126.608H41.875V125.608ZM41.1569 125.918L32.9751 145.81L33.8999 146.19L42.0817 126.298L41.1569 125.918ZM33.4375 145.5H30.5739V146.5H33.4375V145.5ZM31.0363 145.81L22.8545 125.918L21.9296 126.298L30.1115 146.19L31.0363 145.81ZM22.392 125.608H22.1364V126.608H22.392V125.608ZM21.6364 126.108V146H22.6364V126.108H21.6364ZM22.1364 145.5H19.1705V146.5H22.1364V145.5ZM19.6705 146V119.818H18.6705V146H19.6705ZM71.793 140.068L71.345 139.846L71.345 139.846L71.793 140.068ZM67.6893 144.722L67.955 145.145L67.955 145.145L67.6893 144.722ZM55.7745 144.722L55.5088 145.145L55.5088 145.145L55.7745 144.722ZM51.6708 140.068L52.1188 139.846L52.1188 139.846L51.6708 140.068ZM67.6893 121.097L67.955 120.673L67.955 120.673L67.6893 121.097ZM71.793 125.75L71.345 125.972L71.345 125.972L71.793 125.75ZM69.0827 127.169L68.6321 127.386L68.6331 127.388L69.0827 127.169ZM66.0273 123.628L65.7618 124.052L65.7631 124.052L66.0273 123.628ZM57.4237 123.628L57.1594 123.203L57.1581 123.204L57.4237 123.628ZM54.3683 127.169L53.9186 126.95L53.9176 126.952L54.3683 127.169ZM54.3683 138.649L53.9176 138.866L53.9186 138.868L54.3683 138.649ZM57.4237 142.19L57.1581 142.614L57.1594 142.615L57.4237 142.19ZM66.0273 142.19L65.7631 141.766L65.7618 141.767L66.0273 142.19ZM69.0827 138.649L68.6331 138.43L68.6321 138.432L69.0827 138.649ZM72.7887 132.909C72.7887 135.611 72.301 137.918 71.345 139.846L72.2409 140.29C73.2793 138.196 73.7887 135.73 73.7887 132.909H72.7887ZM71.345 139.846C70.3849 141.783 69.0768 143.261 67.4235 144.298L67.955 145.145C69.7791 144.001 71.2068 142.376 72.2409 140.29L71.345 139.846ZM67.4235 144.298C65.7715 145.335 63.8794 145.858 61.7319 145.858V146.858C64.0503 146.858 66.1298 146.29 67.955 145.145L67.4235 144.298ZM61.7319 145.858C59.5844 145.858 57.6923 145.335 56.0402 144.298L55.5088 145.145C57.334 146.29 59.4135 146.858 61.7319 146.858V145.858ZM56.0402 144.298C54.387 143.261 53.0789 141.783 52.1188 139.846L51.2228 140.29C52.257 142.376 53.6847 144.001 55.5088 145.145L56.0402 144.298ZM52.1188 139.846C51.1628 137.918 50.6751 135.611 50.6751 132.909H49.6751C49.6751 135.73 50.1845 138.196 51.2228 140.29L52.1188 139.846ZM50.6751 132.909C50.6751 130.207 51.1628 127.9 52.1188 125.972L51.2228 125.528C50.1845 127.622 49.6751 130.088 49.6751 132.909H50.6751ZM52.1188 125.972C53.0789 124.035 54.387 122.557 56.0402 121.52L55.5088 120.673C53.6847 121.818 52.257 123.442 51.2228 125.528L52.1188 125.972ZM56.0402 121.52C57.6923 120.484 59.5844 119.96 61.7319 119.96V118.96C59.4135 118.96 57.334 119.528 55.5088 120.673L56.0402 121.52ZM61.7319 119.96C63.8794 119.96 65.7715 120.484 67.4235 121.52L67.955 120.673C66.1298 119.528 64.0503 118.96 61.7319 118.96V119.96ZM67.4235 121.52C69.0768 122.557 70.3849 124.035 71.345 125.972L72.2409 125.528C71.2068 123.442 69.7791 121.818 67.955 120.673L67.4235 121.52ZM71.345 125.972C72.301 127.9 72.7887 130.207 72.7887 132.909H73.7887C73.7887 130.088 73.2793 127.622 72.2409 125.528L71.345 125.972ZM70.7205 132.909C70.7205 130.589 70.3326 128.596 69.5324 126.95L68.6331 127.388C69.3499 128.862 69.7205 130.695 69.7205 132.909H70.7205ZM69.5334 126.952C68.7482 125.32 67.6701 124.061 66.2916 123.203L65.7631 124.052C66.9585 124.796 67.9173 125.899 68.6321 127.386L69.5334 126.952ZM66.2929 123.204C64.9307 122.351 63.406 121.926 61.7319 121.926V122.926C63.2282 122.926 64.5671 123.303 65.7618 124.052L66.2929 123.204ZM61.7319 121.926C60.0577 121.926 58.5294 122.351 57.1594 123.203L57.6879 124.052C58.8918 123.303 60.2356 122.926 61.7319 122.926V121.926ZM57.1581 123.204C55.7891 124.062 54.7118 125.319 53.9186 126.95L54.8179 127.388C55.5417 125.899 56.5014 124.796 57.6892 124.052L57.1581 123.204ZM53.9176 126.952C53.1267 128.597 52.7433 130.589 52.7433 132.909H53.7433C53.7433 130.695 54.1098 128.86 54.8189 127.386L53.9176 126.952ZM52.7433 132.909C52.7433 135.229 53.1267 137.221 53.9176 138.866L54.8189 138.432C54.1098 136.958 53.7433 135.123 53.7433 132.909H52.7433ZM53.9186 138.868C54.7118 140.499 55.7891 141.756 57.1581 142.614L57.6892 141.767C56.5014 141.022 55.5417 139.919 54.8179 138.43L53.9186 138.868ZM57.1594 142.615C58.5294 143.468 60.0577 143.892 61.7319 143.892V142.892C60.2356 142.892 58.8918 142.515 57.6879 141.766L57.1594 142.615ZM61.7319 143.892C63.406 143.892 64.9307 143.468 66.2929 142.614L65.7618 141.767C64.5671 142.515 63.2282 142.892 61.7319 142.892V143.892ZM66.2916 142.615C67.6701 141.757 68.7482 140.499 69.5334 138.866L68.6321 138.432C67.9173 139.919 66.9585 141.022 65.7631 141.766L66.2916 142.615ZM69.5324 138.868C70.3326 137.222 70.7205 135.23 70.7205 132.909H69.7205C69.7205 135.123 69.3499 136.957 68.6331 138.43L69.5324 138.868ZM78.4631 119.818L78.9346 119.652L78.8169 119.318H78.4631V119.818ZM86.2358 141.858L85.7643 142.024L85.8819 142.358H86.2358V141.858ZM86.5426 141.858V142.358H86.8965L87.0141 142.024L86.5426 141.858ZM94.3153 119.818V119.318H93.9615L93.8438 119.652L94.3153 119.818ZM97.6392 119.818L98.1086 119.991L98.3554 119.318H97.6392V119.818ZM88.0256 146V146.5H88.3746L88.4949 146.172L88.0256 146ZM84.7528 146L84.2835 146.172L84.4038 146.5H84.7528V146ZM75.1392 119.818V119.318H74.423L74.6698 119.991L75.1392 119.818ZM77.9915 119.984L85.7643 142.024L86.7073 141.692L78.9346 119.652L77.9915 119.984ZM86.2358 142.358H86.5426V141.358H86.2358V142.358ZM87.0141 142.024L94.7869 119.984L93.8438 119.652L86.0711 141.692L87.0141 142.024ZM94.3153 120.318H97.6392V119.318H94.3153V120.318ZM97.1698 119.646L87.5562 145.828L88.4949 146.172L98.1086 119.991L97.1698 119.646ZM88.0256 145.5H84.7528V146.5H88.0256V145.5ZM85.2222 145.828L75.6086 119.646L74.6698 119.991L84.2835 146.172L85.2222 145.828ZM75.1392 120.318H78.4631V119.318H75.1392V120.318ZM104.888 119.818H105.388V119.318H104.888V119.818ZM104.888 146V146.5H105.388V146H104.888ZM101.717 146H101.217V146.5H101.717V146ZM101.717 119.818V119.318H101.217V119.818H101.717ZM104.388 119.818V146H105.388V119.818H104.388ZM104.888 145.5H101.717V146.5H104.888V145.5ZM102.217 146V119.818H101.217V146H102.217ZM101.717 120.318H104.888V119.318H101.717V120.318ZM111.245 146H110.745V146.5H111.245V146ZM111.245 119.818V119.318H110.745V119.818H111.245ZM127.046 119.818H127.546V119.318H127.046V119.818ZM127.046 122.631V123.131H127.546V122.631H127.046ZM114.415 122.631V122.131H113.915V122.631H114.415ZM114.415 131.477H113.915V131.977H114.415V131.477ZM126.228 131.477H126.728V130.977H126.228V131.477ZM126.228 134.29V134.79H126.728V134.29H126.228ZM114.415 134.29V133.79H113.915V134.29H114.415ZM114.415 143.188H113.915V143.688H114.415V143.188ZM127.25 143.188H127.75V142.688H127.25V143.188ZM127.25 146V146.5H127.75V146H127.25ZM111.745 146V119.818H110.745V146H111.745ZM111.245 120.318H127.046V119.318H111.245V120.318ZM126.546 119.818V122.631H127.546V119.818H126.546ZM127.046 122.131H114.415V123.131H127.046V122.131ZM113.915 122.631V131.477H114.915V122.631H113.915ZM114.415 131.977H126.228V130.977H114.415V131.977ZM125.728 131.477V134.29H126.728V131.477H125.728ZM126.228 133.79H114.415V134.79H126.228V133.79ZM113.915 134.29V143.188H114.915V134.29H113.915ZM114.415 143.688H127.25V142.688H114.415V143.688ZM126.75 143.188V146H127.75V143.188H126.75ZM127.25 145.5H111.245V146.5H127.25V145.5ZM147.078 126.364L146.582 126.422L146.634 126.864H147.078V126.364ZM145.212 123.347L144.938 123.765L144.938 123.765L145.212 123.347ZM138.155 122.835L137.957 122.376L137.955 122.377L138.155 122.835ZM136.135 124.382L135.733 124.085L135.731 124.088L136.135 124.382ZM135.918 128.422L135.501 128.698L135.506 128.706L135.918 128.422ZM137.222 129.662L136.956 130.085L136.961 130.088L137.222 129.662ZM138.884 130.467L138.711 130.937L138.717 130.939L138.884 130.467ZM140.482 130.966L140.612 130.483L140.609 130.482L140.482 130.966ZM143.141 131.682L143.011 132.165L143.014 132.165L143.141 131.682ZM145.417 132.423L145.24 132.891L145.242 132.892L145.417 132.423ZM147.833 133.714L147.543 134.122L147.548 134.126L147.833 133.714ZM149.75 135.786L150.18 135.53L150.18 135.53L149.75 135.786ZM149.392 142.727L148.973 142.455L148.972 142.457L149.392 142.727ZM146.171 145.45L145.956 144.999L145.955 144.999L146.171 145.45ZM136.174 145.553L135.971 146.01L135.972 146.01L136.174 145.553ZM132.952 143.021L132.546 143.313L132.547 143.315L132.952 143.021ZM131.635 139.25V138.75H131.098L131.137 139.286L131.635 139.25ZM134.908 139.25L135.406 139.207L135.367 138.75H134.908V139.25ZM135.905 141.705L135.533 142.038L135.537 142.043L135.905 141.705ZM138.13 143.136L137.963 143.608L137.969 143.61L138.13 143.136ZM144.304 143.009L144.493 143.472L144.496 143.47L144.304 143.009ZM146.593 141.347L146.984 141.658L146.986 141.656L146.593 141.347ZM146.708 136.719L147.081 136.386L147.081 136.386L146.708 136.719ZM144.79 135.389L144.593 135.849L144.593 135.849L144.79 135.389ZM142.221 134.494L142.083 134.975L142.087 134.976L142.221 134.494ZM138.999 133.574L138.861 134.054L138.862 134.055L138.999 133.574ZM134.141 131.055L133.804 131.424L133.804 131.424L134.141 131.055ZM133.54 122.938L133.136 122.643L133.136 122.644L133.54 122.938ZM136.762 120.381L136.967 120.837L136.968 120.836L136.762 120.381ZM145.8 120.368L145.591 120.822L145.593 120.823L145.8 120.368ZM148.919 122.822L148.517 123.119L148.519 123.121L148.919 122.822ZM150.147 126.364V126.864H150.663L150.646 126.348L150.147 126.364ZM147.575 126.305C147.404 124.863 146.701 123.725 145.486 122.929L144.938 123.765C145.905 124.4 146.446 125.274 146.582 126.422L147.575 126.305ZM145.486 122.929C144.298 122.149 142.859 121.773 141.198 121.773V122.773C142.707 122.773 143.944 123.113 144.938 123.765L145.486 122.929ZM141.198 121.773C139.985 121.773 138.901 121.969 137.957 122.376L138.353 123.294C139.148 122.952 140.092 122.773 141.198 122.773V121.773ZM137.955 122.377C137.027 122.782 136.279 123.348 135.733 124.085L136.537 124.68C136.963 124.104 137.562 123.639 138.355 123.294L137.955 122.377ZM135.731 124.088C135.19 124.832 134.919 125.682 134.919 126.619H135.919C135.919 125.886 136.126 125.244 136.54 124.676L135.731 124.088ZM134.919 126.619C134.919 127.4 135.106 128.101 135.501 128.698L136.335 128.146C136.065 127.738 135.919 127.236 135.919 126.619H134.919ZM135.506 128.706C135.887 129.258 136.372 129.718 136.956 130.085L137.488 129.239C137.015 128.941 136.63 128.574 136.33 128.138L135.506 128.706ZM136.961 130.088C137.517 130.429 138.101 130.712 138.711 130.937L139.056 129.998C138.508 129.796 137.984 129.542 137.483 129.236L136.961 130.088ZM138.717 130.939C139.307 131.147 139.853 131.317 140.355 131.449L140.609 130.482C140.139 130.359 139.62 130.197 139.05 129.996L138.717 130.939ZM140.352 131.449L143.011 132.165L143.271 131.199L140.612 130.483L140.352 131.449ZM143.014 132.165C143.675 132.339 144.417 132.58 145.24 132.891L145.593 131.956C144.746 131.636 143.97 131.383 143.268 131.198L143.014 132.165ZM145.242 132.892C146.043 133.191 146.81 133.601 147.543 134.122L148.123 133.307C147.322 132.737 146.478 132.286 145.592 131.955L145.242 132.892ZM147.548 134.126C148.262 134.62 148.853 135.257 149.321 136.041L150.18 135.53C149.642 134.627 148.954 133.883 148.117 133.303L147.548 134.126ZM149.321 136.041C149.767 136.791 150.005 137.733 150.005 138.892H151.005C151.005 137.597 150.739 136.468 150.18 135.53L149.321 136.041ZM150.005 138.892C150.005 140.214 149.66 141.397 148.973 142.455L149.812 143C150.608 141.773 151.005 140.399 151.005 138.892H150.005ZM148.972 142.457C148.296 143.509 147.3 144.359 145.956 144.999L146.386 145.902C147.871 145.195 149.022 144.229 149.813 142.997L148.972 142.457ZM145.955 144.999C144.633 145.632 143.002 145.96 141.044 145.96V146.96C143.11 146.96 144.896 146.615 146.387 145.901L145.955 144.999ZM141.044 145.96C139.222 145.96 137.67 145.666 136.375 145.095L135.972 146.01C137.421 146.649 139.117 146.96 141.044 146.96V145.96ZM136.376 145.096C135.084 144.522 134.083 143.731 133.357 142.728L132.547 143.315C133.389 144.477 134.536 145.373 135.971 146.01L136.376 145.096ZM133.358 142.73C132.641 141.729 132.23 140.562 132.134 139.214L131.137 139.286C131.245 140.802 131.712 142.149 132.546 143.313L133.358 142.73ZM131.635 139.75H134.908V138.75H131.635V139.75ZM134.41 139.293C134.503 140.373 134.871 141.298 135.533 142.038L136.278 141.371C135.78 140.815 135.483 140.104 135.406 139.207L134.41 139.293ZM135.537 142.043C136.186 142.748 136.999 143.268 137.963 143.608L138.296 142.665C137.471 142.374 136.801 141.94 136.273 141.366L135.537 142.043ZM137.969 143.61C138.928 143.936 139.955 144.097 141.044 144.097V143.097C140.054 143.097 139.138 142.951 138.29 142.663L137.969 143.61ZM141.044 144.097C142.309 144.097 143.461 143.892 144.493 143.472L144.116 142.545C143.222 142.909 142.2 143.097 141.044 143.097V144.097ZM144.496 143.47C145.525 143.042 146.361 142.441 146.984 141.658L146.201 141.035C145.699 141.667 145.009 142.174 144.112 142.547L144.496 143.47ZM146.986 141.656C147.621 140.847 147.936 139.902 147.936 138.841H146.936C146.936 139.689 146.689 140.414 146.2 141.038L146.986 141.656ZM147.936 138.841C147.936 137.874 147.663 137.04 147.081 136.386L146.334 137.051C146.724 137.488 146.936 138.07 146.936 138.841H147.936ZM147.081 136.386C146.539 135.777 145.835 135.295 144.988 134.93L144.593 135.849C145.33 136.166 145.905 136.569 146.334 137.051L147.081 136.386ZM144.988 134.93C144.172 134.579 143.294 134.274 142.354 134.013L142.087 134.976C142.988 135.226 143.823 135.517 144.593 135.849L144.988 134.93ZM142.358 134.014L139.136 133.093L138.862 134.055L142.083 134.975L142.358 134.014ZM139.137 133.093C137.143 132.52 135.6 131.711 134.478 130.686L133.804 131.424C135.069 132.581 136.764 133.451 138.861 134.054L139.137 133.093ZM134.478 130.686C133.399 129.699 132.851 128.411 132.851 126.773H131.851C131.851 128.663 132.497 130.23 133.804 131.424L134.478 130.686ZM132.851 126.773C132.851 125.403 133.22 124.229 133.945 123.231L133.136 122.644C132.275 123.827 131.851 125.211 131.851 126.773H132.851ZM133.944 123.232C134.69 122.209 135.692 121.409 136.967 120.837L136.557 119.925C135.138 120.562 133.993 121.467 133.136 122.643L133.944 123.232ZM136.968 120.836C138.251 120.255 139.692 119.96 141.3 119.96V118.96C139.567 118.96 137.983 119.279 136.555 119.925L136.968 120.836ZM141.3 119.96C142.927 119.96 144.354 120.252 145.591 120.822L146.009 119.914C144.621 119.274 143.048 118.96 141.3 118.96V119.96ZM145.593 120.823C146.837 121.389 147.806 122.156 148.517 123.119L149.322 122.526C148.498 121.41 147.388 120.54 146.007 119.913L145.593 120.823ZM148.519 123.121C149.232 124.078 149.608 125.159 149.647 126.38L150.646 126.348C150.601 124.926 150.158 123.647 149.32 122.523L148.519 123.121ZM150.147 125.864H147.078V126.864H150.147V125.864ZM165.842 146H165.342V146.5H165.842V146ZM165.842 119.818V119.318H165.342V119.818H165.842ZM181.643 119.818H182.143V119.318H181.643V119.818ZM181.643 122.631V123.131H182.143V122.631H181.643ZM169.013 122.631V122.131H168.513V122.631H169.013ZM169.013 131.477H168.513V131.977H169.013V131.477ZM180.825 131.477H181.325V130.977H180.825V131.477ZM180.825 134.29V134.79H181.325V134.29H180.825ZM169.013 134.29V133.79H168.513V134.29H169.013ZM169.013 143.188H168.513V143.688H169.013V143.188ZM181.848 143.188H182.348V142.688H181.848V143.188ZM181.848 146V146.5H182.348V146H181.848ZM166.342 146V119.818H165.342V146H166.342ZM165.842 120.318H181.643V119.318H165.842V120.318ZM181.143 119.818V122.631H182.143V119.818H181.143ZM181.643 122.131H169.013V123.131H181.643V122.131ZM168.513 122.631V131.477H169.513V122.631H168.513ZM169.013 131.977H180.825V130.977H169.013V131.977ZM180.325 131.477V134.29H181.325V131.477H180.325ZM180.825 133.79H169.013V134.79H180.825V133.79ZM168.513 134.29V143.188H169.513V134.29H168.513ZM169.013 143.688H181.848V142.688H169.013V143.688ZM181.348 143.188V146H182.348V143.188H181.348ZM181.848 145.5H165.842V146.5H181.848V145.5ZM188.892 119.818L189.317 119.555L189.17 119.318H188.892V119.818ZM195.642 130.71L195.217 130.974L195.364 131.21H195.642V130.71ZM195.847 130.71V131.21H196.125L196.272 130.974L195.847 130.71ZM202.597 119.818V119.318H202.318L202.172 119.555L202.597 119.818ZM206.33 119.818L206.753 120.084L207.235 119.318H206.33V119.818ZM198.097 132.909L197.673 132.643L197.506 132.909L197.673 133.175L198.097 132.909ZM206.33 146V146.5H207.235L206.753 145.734L206.33 146ZM202.597 146L202.174 146.267L202.321 146.5H202.597V146ZM195.847 135.312L196.269 135.046L196.122 134.812H195.847V135.312ZM195.642 135.312V134.812H195.366L195.219 135.046L195.642 135.312ZM188.892 146V146.5H189.168L189.315 146.267L188.892 146ZM185.159 146L184.739 145.729L184.242 146.5H185.159V146ZM193.597 132.909L194.017 133.18L194.191 132.909L194.017 132.638L193.597 132.909ZM185.159 119.818V119.318H184.242L184.739 120.089L185.159 119.818ZM188.467 120.082L195.217 130.974L196.067 130.447L189.317 119.555L188.467 120.082ZM195.642 131.21H195.847V130.21H195.642V131.21ZM196.272 130.974L203.022 120.082L202.172 119.555L195.422 130.447L196.272 130.974ZM202.597 120.318H206.33V119.318H202.597V120.318ZM205.906 119.552L197.673 132.643L198.52 133.175L206.753 120.084L205.906 119.552ZM197.673 133.175L205.906 146.266L206.753 145.734L198.52 132.643L197.673 133.175ZM206.33 145.5H202.597V146.5H206.33V145.5ZM203.019 145.733L196.269 135.046L195.424 135.579L202.174 146.267L203.019 145.733ZM195.847 134.812H195.642V135.812H195.847V134.812ZM195.219 135.046L188.469 145.733L189.315 146.267L196.065 135.579L195.219 135.046ZM188.892 145.5H185.159V146.5H188.892V145.5ZM185.579 146.271L194.017 133.18L193.176 132.638L184.739 145.729L185.579 146.271ZM194.017 132.638L185.579 119.547L184.739 120.089L193.176 133.18L194.017 132.638ZM185.159 120.318H188.892V119.318H185.159V120.318ZM210.456 146H209.956V146.5H210.456V146ZM210.456 119.818V119.318H209.956V119.818H210.456ZM224.339 120.93L224.092 121.365L224.095 121.367L224.339 120.93ZM227.254 123.909L226.807 124.134L226.807 124.134L227.254 123.909ZM227.254 132.308L226.807 132.085L226.805 132.087L227.254 132.308ZM224.365 135.325L224.612 135.76L224.614 135.759L224.365 135.325ZM213.012 136.438H212.512V136.938H213.012V136.438ZM213.012 133.625V133.125H212.512V133.625H213.012ZM222.639 132.896L222.391 132.462L222.391 132.462L222.639 132.896ZM224.493 130.928L224.04 130.715L224.039 130.717L224.493 130.928ZM224.493 125.29L224.039 125.5L224.041 125.504L224.493 125.29ZM222.626 123.347L222.384 123.784L222.387 123.786L222.626 123.347ZM213.626 122.631V122.131H213.126V122.631H213.626ZM213.626 146V146.5H214.126V146H213.626ZM210.956 146V119.818H209.956V146H210.956ZM210.456 120.318H219.302V119.318H210.456V120.318ZM219.302 120.318C221.3 120.318 222.886 120.679 224.092 121.365L224.586 120.496C223.184 119.698 221.412 119.318 219.302 119.318V120.318ZM224.095 121.367C225.327 122.055 226.225 122.977 226.807 124.134L227.701 123.684C227.022 122.336 225.976 121.272 224.583 120.494L224.095 121.367ZM226.807 124.134C227.399 125.31 227.7 126.63 227.7 128.102H228.7C228.7 126.489 228.37 125.014 227.701 123.684L226.807 124.134ZM227.7 128.102C227.7 129.575 227.399 130.899 226.807 132.085L227.701 132.532C228.37 131.195 228.7 129.715 228.7 128.102H227.7ZM226.805 132.087C226.23 133.253 225.34 134.188 224.115 134.892L224.614 135.759C225.998 134.963 227.033 133.886 227.702 132.529L226.805 132.087ZM224.118 134.891C222.911 135.577 221.333 135.938 219.353 135.938V136.938C221.447 136.938 223.21 136.557 224.612 135.76L224.118 134.891ZM219.353 135.938H213.012V136.938H219.353V135.938ZM213.512 136.438V133.625H212.512V136.438H213.512ZM213.012 134.125H219.251V133.125H213.012V134.125ZM219.251 134.125C220.709 134.125 221.933 133.874 222.886 133.331L222.391 132.462C221.64 132.89 220.606 133.125 219.251 133.125V134.125ZM222.886 133.331C223.822 132.798 224.515 132.066 224.946 131.138L224.039 130.717C223.703 131.442 223.161 132.023 222.391 132.462L222.886 133.331ZM224.945 131.14C225.372 130.23 225.581 129.214 225.581 128.102H224.581C224.581 129.087 224.397 129.955 224.04 130.715L224.945 131.14ZM225.581 128.102C225.581 126.991 225.372 125.978 224.944 125.076L224.041 125.504C224.397 126.255 224.581 127.117 224.581 128.102H225.581ZM224.946 125.079C224.514 124.148 223.813 123.423 222.865 122.907L222.387 123.786C223.161 124.207 223.704 124.778 224.039 125.5L224.946 125.079ZM222.869 122.909C221.908 122.377 220.673 122.131 219.2 122.131V123.131C220.574 123.131 221.623 123.362 222.384 123.784L222.869 122.909ZM219.2 122.131H213.626V123.131H219.2V122.131ZM213.126 122.631V146H214.126V122.631H213.126ZM213.626 145.5H210.456V146.5H213.626V145.5ZM233.307 146H232.807V146.5H233.307V146ZM233.307 119.818V119.318H232.807V119.818H233.307ZM236.478 119.818H236.978V119.318H236.478V119.818ZM236.478 143.188H235.978V143.688H236.478V143.188ZM248.648 143.188H249.148V142.688H248.648V143.188ZM248.648 146V146.5H249.148V146H248.648ZM233.807 146V119.818H232.807V146H233.807ZM233.307 120.318H236.478V119.318H233.307V120.318ZM235.978 119.818V143.188H236.978V119.818H235.978ZM236.478 143.688H248.648V142.688H236.478V143.688ZM248.148 143.188V146H249.148V143.188H248.148ZM248.648 145.5H233.307V146.5H248.648V145.5ZM273.133 140.068L272.685 139.846L272.685 139.846L273.133 140.068ZM269.029 144.722L269.295 145.145L269.295 145.145L269.029 144.722ZM257.114 144.722L256.849 145.145L256.849 145.145L257.114 144.722ZM253.011 140.068L253.459 139.846L253.459 139.846L253.011 140.068ZM269.029 121.097L269.295 120.673L269.295 120.673L269.029 121.097ZM273.133 125.75L272.685 125.972L272.685 125.972L273.133 125.75ZM270.423 127.169L269.972 127.386L269.973 127.388L270.423 127.169ZM267.367 123.628L267.102 124.052L267.103 124.052L267.367 123.628ZM258.763 123.628L258.499 123.203L258.498 123.204L258.763 123.628ZM255.708 127.169L255.258 126.95L255.257 126.952L255.708 127.169ZM255.708 138.649L255.257 138.866L255.258 138.868L255.708 138.649ZM258.763 142.19L258.498 142.614L258.499 142.615L258.763 142.19ZM267.367 142.19L267.103 141.766L267.102 141.767L267.367 142.19ZM270.423 138.649L269.973 138.43L269.972 138.432L270.423 138.649ZM274.129 132.909C274.129 135.611 273.641 137.918 272.685 139.846L273.581 140.29C274.619 138.196 275.129 135.73 275.129 132.909H274.129ZM272.685 139.846C271.725 141.783 270.417 143.261 268.763 144.298L269.295 145.145C271.119 144.001 272.547 142.376 273.581 140.29L272.685 139.846ZM268.763 144.298C267.111 145.335 265.219 145.858 263.072 145.858V146.858C265.39 146.858 267.47 146.29 269.295 145.145L268.763 144.298ZM263.072 145.858C260.924 145.858 259.032 145.335 257.38 144.298L256.849 145.145C258.674 146.29 260.753 146.858 263.072 146.858V145.858ZM257.38 144.298C255.727 143.261 254.419 141.783 253.459 139.846L252.563 140.29C253.597 142.376 255.025 144.001 256.849 145.145L257.38 144.298ZM253.459 139.846C252.503 137.918 252.015 135.611 252.015 132.909H251.015C251.015 135.73 251.524 138.196 252.563 140.29L253.459 139.846ZM252.015 132.909C252.015 130.207 252.503 127.9 253.459 125.972L252.563 125.528C251.524 127.622 251.015 130.088 251.015 132.909H252.015ZM253.459 125.972C254.419 124.035 255.727 122.557 257.38 121.52L256.849 120.673C255.025 121.818 253.597 123.442 252.563 125.528L253.459 125.972ZM257.38 121.52C259.032 120.484 260.924 119.96 263.072 119.96V118.96C260.753 118.96 258.674 119.528 256.849 120.673L257.38 121.52ZM263.072 119.96C265.219 119.96 267.111 120.484 268.763 121.52L269.295 120.673C267.47 119.528 265.39 118.96 263.072 118.96V119.96ZM268.763 121.52C270.417 122.557 271.725 124.035 272.685 125.972L273.581 125.528C272.547 123.442 271.119 121.818 269.295 120.673L268.763 121.52ZM272.685 125.972C273.641 127.9 274.129 130.207 274.129 132.909H275.129C275.129 130.088 274.619 127.622 273.581 125.528L272.685 125.972ZM272.06 132.909C272.06 130.589 271.672 128.596 270.872 126.95L269.973 127.388C270.69 128.862 271.06 130.695 271.06 132.909H272.06ZM270.873 126.952C270.088 125.32 269.01 124.061 267.631 123.203L267.103 124.052C268.298 124.796 269.257 125.899 269.972 127.386L270.873 126.952ZM267.633 123.204C266.271 122.351 264.746 121.926 263.072 121.926V122.926C264.568 122.926 265.907 123.303 267.102 124.052L267.633 123.204ZM263.072 121.926C261.398 121.926 259.869 122.351 258.499 123.203L259.028 124.052C260.232 123.303 261.575 122.926 263.072 122.926V121.926ZM258.498 123.204C257.129 124.062 256.052 125.319 255.258 126.95L256.158 127.388C256.882 125.899 257.841 124.796 259.029 124.052L258.498 123.204ZM255.257 126.952C254.467 128.597 254.083 130.589 254.083 132.909H255.083C255.083 130.695 255.45 128.86 256.159 127.386L255.257 126.952ZM254.083 132.909C254.083 135.229 254.467 137.221 255.257 138.866L256.159 138.432C255.45 136.958 255.083 135.123 255.083 132.909H254.083ZM255.258 138.868C256.052 140.499 257.129 141.756 258.498 142.614L259.029 141.767C257.841 141.022 256.882 139.919 256.158 138.43L255.258 138.868ZM258.499 142.615C259.869 143.468 261.398 143.892 263.072 143.892V142.892C261.575 142.892 260.232 142.515 259.028 141.766L258.499 142.615ZM263.072 143.892C264.746 143.892 266.271 143.468 267.633 142.614L267.102 141.767C265.907 142.515 264.568 142.892 263.072 142.892V143.892ZM267.631 142.615C269.01 141.757 270.088 140.499 270.873 138.866L269.972 138.432C269.257 139.919 268.298 141.022 267.103 141.766L267.631 142.615ZM270.872 138.868C271.672 137.222 272.06 135.23 272.06 132.909H271.06C271.06 135.123 270.69 136.957 269.973 138.43L270.872 138.868ZM279.96 146H279.46V146.5H279.96V146ZM279.96 119.818V119.318H279.46V119.818H279.96ZM293.843 120.866L293.608 121.308L293.61 121.309L293.843 120.866ZM296.758 123.717L296.314 123.948L296.314 123.948L296.758 123.717ZM296.758 131.95L296.316 131.717L296.316 131.717L296.758 131.95ZM293.856 134.763L294.085 135.207L294.088 135.206L293.856 134.763ZM281.698 135.773H281.198V136.273H281.698V135.773ZM281.698 132.909V132.409H281.198V132.909H281.698ZM292.13 132.295L291.915 131.844L291.914 131.845L292.13 132.295ZM293.996 130.557L293.552 130.327L293.551 130.329L293.996 130.557ZM292.117 123.283L291.892 123.729L291.895 123.731L292.117 123.283ZM283.13 122.631V122.131H282.63V122.631H283.13ZM283.13 146V146.5H283.63V146H283.13ZM292.283 134.239L292.722 133.998L292.58 133.739H292.283V134.239ZM298.727 146V146.5H299.571L299.165 145.76L298.727 146ZM295.045 146L294.605 146.237L294.746 146.5H295.045V146ZM288.704 134.239V133.739H287.866L288.264 134.476L288.704 134.239ZM280.46 146V119.818H279.46V146H280.46ZM279.96 120.318H288.806V119.318H279.96V120.318ZM288.806 120.318C290.799 120.318 292.39 120.659 293.608 121.308L294.078 120.425C292.671 119.676 290.904 119.318 288.806 119.318V120.318ZM293.61 121.309C294.841 121.956 295.735 122.836 296.314 123.948L297.201 123.486C296.519 122.178 295.47 121.157 294.076 120.424L293.61 121.309ZM296.314 123.948C296.903 125.078 297.204 126.374 297.204 127.847H298.204C298.204 126.234 297.874 124.777 297.201 123.486L296.314 123.948ZM297.204 127.847C297.204 129.32 296.903 130.605 296.316 131.717L297.2 132.184C297.874 130.909 298.204 129.459 298.204 127.847H297.204ZM296.316 131.717C295.737 132.812 294.847 133.68 293.624 134.32L294.088 135.206C295.473 134.482 296.518 133.475 297.2 132.184L296.316 131.717ZM293.626 134.319C292.415 134.944 290.835 135.273 288.857 135.273V136.273C290.937 136.273 292.688 135.928 294.085 135.207L293.626 134.319ZM288.857 135.273H281.698V136.273H288.857V135.273ZM282.198 135.773V132.909H281.198V135.773H282.198ZM281.698 133.409H288.755V132.409H281.698V133.409ZM288.755 133.409C290.195 133.409 291.402 133.199 292.346 132.746L291.914 131.845C291.153 132.21 290.111 132.409 288.755 132.409V133.409ZM292.345 132.747C293.291 132.297 294.001 131.645 294.442 130.784L293.551 130.329C293.224 130.968 292.69 131.475 291.915 131.844L292.345 132.747ZM294.441 130.786C294.877 129.943 295.085 128.957 295.085 127.847H294.085C294.085 128.833 293.9 129.654 293.552 130.327L294.441 130.786ZM295.085 127.847C295.085 126.736 294.877 125.74 294.444 124.874L293.549 125.322C293.9 126.024 294.085 126.861 294.085 127.847H295.085ZM294.444 124.874C293.998 123.984 293.288 123.304 292.339 122.835L291.895 123.731C292.668 124.113 293.211 124.644 293.549 125.322L294.444 124.874ZM292.343 122.836C291.387 122.354 290.163 122.131 288.704 122.131V123.131C290.074 123.131 291.126 123.342 291.892 123.729L292.343 122.836ZM288.704 122.131H283.13V123.131H288.704V122.131ZM282.63 122.631V146H283.63V122.631H282.63ZM283.13 145.5H279.96V146.5H283.13V145.5ZM291.845 134.479L298.288 146.24L299.165 145.76L292.722 133.998L291.845 134.479ZM298.727 145.5H295.045V146.5H298.727V145.5ZM295.485 145.763L289.144 134.001L288.264 134.476L294.605 146.237L295.485 145.763ZM288.704 134.739H292.283V133.739H288.704V134.739ZM302.987 146H302.487V146.5H302.987V146ZM302.987 119.818V119.318H302.487V119.818H302.987ZM318.788 119.818H319.288V119.318H318.788V119.818ZM318.788 122.631V123.131H319.288V122.631H318.788ZM306.157 122.631V122.131H305.657V122.631H306.157ZM306.157 131.477H305.657V131.977H306.157V131.477ZM317.97 131.477H318.47V130.977H317.97V131.477ZM317.97 134.29V134.79H318.47V134.29H317.97ZM306.157 134.29V133.79H305.657V134.29H306.157ZM306.157 143.188H305.657V143.688H306.157V143.188ZM318.993 143.188H319.493V142.688H318.993V143.188ZM318.993 146V146.5H319.493V146H318.993ZM303.487 146V119.818H302.487V146H303.487ZM302.987 120.318H318.788V119.318H302.987V120.318ZM318.288 119.818V122.631H319.288V119.818H318.288ZM318.788 122.131H306.157V123.131H318.788V122.131ZM305.657 122.631V131.477H306.657V122.631H305.657ZM306.157 131.977H317.97V130.977H306.157V131.977ZM317.47 131.477V134.29H318.47V131.477H317.47ZM317.97 133.79H306.157V134.79H317.97V133.79ZM305.657 134.29V143.188H306.657V134.29H305.657ZM306.157 143.688H318.993V142.688H306.157V143.688ZM318.493 143.188V146H319.493V143.188H318.493ZM318.993 145.5H302.987V146.5H318.993V145.5ZM324.502 146H324.002V146.5H324.502V146ZM324.502 119.818V119.318H324.002V119.818H324.502ZM338.386 120.866L338.151 121.308L338.153 121.309L338.386 120.866ZM341.301 123.717L340.857 123.948L340.857 123.948L341.301 123.717ZM341.301 131.95L340.859 131.717L340.859 131.717L341.301 131.95ZM338.399 134.763L338.628 135.207L338.63 135.206L338.399 134.763ZM326.241 135.773H325.741V136.273H326.241V135.773ZM326.241 132.909V132.409H325.741V132.909H326.241ZM336.673 132.295L336.458 131.844L336.457 131.845L336.673 132.295ZM338.539 130.557L338.095 130.327L338.094 130.329L338.539 130.557ZM336.66 123.283L336.435 123.729L336.438 123.731L336.66 123.283ZM327.673 122.631V122.131H327.173V122.631H327.673ZM327.673 146V146.5H328.173V146H327.673ZM336.826 134.239L337.265 133.998L337.123 133.739H336.826V134.239ZM343.27 146V146.5H344.114L343.708 145.76L343.27 146ZM339.588 146L339.148 146.237L339.289 146.5H339.588V146ZM333.247 134.239V133.739H332.409L332.807 134.476L333.247 134.239ZM325.002 146V119.818H324.002V146H325.002ZM324.502 120.318H333.349V119.318H324.502V120.318ZM333.349 120.318C335.342 120.318 336.933 120.659 338.151 121.308L338.621 120.425C337.214 119.676 335.447 119.318 333.349 119.318V120.318ZM338.153 121.309C339.384 121.956 340.278 122.836 340.857 123.948L341.744 123.486C341.062 122.178 340.013 121.157 338.619 120.424L338.153 121.309ZM340.857 123.948C341.446 125.078 341.747 126.374 341.747 127.847H342.747C342.747 126.234 342.417 124.777 341.744 123.486L340.857 123.948ZM341.747 127.847C341.747 129.32 341.446 130.605 340.859 131.717L341.743 132.184C342.417 130.909 342.747 129.459 342.747 127.847H341.747ZM340.859 131.717C340.28 132.812 339.39 133.68 338.167 134.32L338.63 135.206C340.016 134.482 341.061 133.475 341.743 132.184L340.859 131.717ZM338.169 134.319C336.958 134.944 335.378 135.273 333.4 135.273V136.273C335.48 136.273 337.231 135.928 338.628 135.207L338.169 134.319ZM333.4 135.273H326.241V136.273H333.4V135.273ZM326.741 135.773V132.909H325.741V135.773H326.741ZM326.241 133.409H333.298V132.409H326.241V133.409ZM333.298 133.409C334.738 133.409 335.945 133.199 336.889 132.746L336.457 131.845C335.696 132.21 334.654 132.409 333.298 132.409V133.409ZM336.888 132.747C337.834 132.297 338.544 131.645 338.985 130.784L338.094 130.329C337.767 130.968 337.233 131.475 336.458 131.844L336.888 132.747ZM338.984 130.786C339.42 129.943 339.627 128.957 339.627 127.847H338.627C338.627 128.833 338.443 129.654 338.095 130.327L338.984 130.786ZM339.627 127.847C339.627 126.736 339.42 125.74 338.987 124.874L338.092 125.322C338.443 126.024 338.627 126.861 338.627 127.847H339.627ZM338.987 124.874C338.541 123.984 337.83 123.304 336.882 122.835L336.438 123.731C337.211 124.113 337.754 124.644 338.092 125.322L338.987 124.874ZM336.886 122.836C335.93 122.354 334.706 122.131 333.247 122.131V123.131C334.617 123.131 335.669 123.342 336.435 123.729L336.886 122.836ZM333.247 122.131H327.673V123.131H333.247V122.131ZM327.173 122.631V146H328.173V122.631H327.173ZM327.673 145.5H324.502V146.5H327.673V145.5ZM336.388 134.479L342.831 146.24L343.708 145.76L337.265 133.998L336.388 134.479ZM343.27 145.5H339.588V146.5H343.27V145.5ZM340.028 145.763L333.687 134.001L332.807 134.476L339.148 146.237L340.028 145.763ZM333.247 134.739H336.826V133.739H333.247V134.739Z" fill="black"/>
<path fill-rule="evenodd" clip-rule="evenodd" d="M180 101C190.493 101 199 92.4934 199 82C199 71.5066 190.493 63 180 63C169.507 63 161 71.5066 161 82C161 92.4934 169.507 101 180 101Z" fill="#2BE080"/>
<path fill-rule="evenodd" clip-rule="evenodd" d="M185.866 85C185.507 85 185.18 85.1973 184.973 85.4915C183.897 87.0194 182.137 88 180.185 88C176.984 88 174.3 85.3634 174.3 82C174.3 78.6366 176.984 76 180.185 76C182.137 76 183.897 76.9806 184.973 78.5085C185.18 78.8027 185.507 79 185.866 79H189.342C190.004 79 190.483 78.3664 190.23 77.7547C188.586 73.7873 184.707 71 180.185 71C174.173 71 169.3 75.9249 169.3 82C169.3 88.0751 174.173 93 180.185 93C184.707 93 188.586 90.2127 190.23 86.2453C190.483 85.6336 190.004 85 189.342 85H185.866Z" fill="white"/>
</svg>
